<svg id="Layer_1" data-name="Layer 1" xmlns="http://www.w3.org/2000/svg" xmlns:xlink="http://www.w3.org/1999/xlink" viewBox="0 0 512 467.36">
  <defs>
    <style>
      .cls-1, .cls-2 {
        fill: none;
      }

      .cls-2 {
        clip-path: url(#clip-path);
      }

      .cls-3 {
        fill: #6d6d6d;
        stroke: #2b2d2c;
        stroke-miterlimit: 10;
        stroke-width: 3.92px;
      }

      .cls-4 {
        fill: #2d2c2b;
      }

      .cls-5 {
        clip-path: url(#clip-path-17);
      }

      .cls-6 {
        fill: red;
      }

      .cls-7 {
        fill: #00ffec;
      }

      .cls-8 {
        fill: #00ff48;
      }

      .cls-9 {
        fill: #a54700;
      }

      .cls-10 {
        fill: #b400ff;
      }

      .cls-11 {
        fill: #3a3531;
      }

      .cls-12 {
        clip-path: url(#clip-path-33);
      }

      .cls-13 {
        fill: #70621b;
      }
    </style>
    <clipPath id="clip-path">
      <path class="cls-1" d="M480.9,160.6H32.9a32,32,0,0,0-32,32v80a16,16,0,0,0,16,16h480a16,16,0,0,0,16-16h0v-80a32,32,0,0,0-32-32Z"/>
    </clipPath>
    <clipPath id="clip-path-17" transform="translate(-0.9 -13.74)">
      <path class="cls-2" d="M480.9,160.6H32.9a32,32,0,0,0-32,32v80a16,16,0,0,0,16,16h480a16,16,0,0,0,16-16h0v-80a32,32,0,0,0-32-32Z"/>
    </clipPath>
    <clipPath id="clip-path-33" transform="translate(-0.9 -13.74)">
      <path class="cls-1" d="M33.9,320.6v128a32,32,0,0,0,31.5,32v.5l384.5-.5a32,32,0,0,0,32-32v-128Z"/>
    </clipPath>
  </defs>
  <title>cyberpunk_box</title>
  <g>
    <polygon class="cls-3" points="176.8 68.96 110.4 68.96 77.2 126.46 110.4 183.96 176.8 183.96 210 126.46 176.8 68.96"/>
    <polygon class="cls-3" points="399.8 68.96 333.4 68.96 300.2 126.46 333.4 183.96 399.8 183.96 433 126.46 399.8 68.96"/>
    <polygon class="cls-3" points="287 1.96 220.6 1.96 187.4 59.46 220.6 116.96 287 116.96 320.2 59.46 287 1.96"/>
    <polygon class="cls-3" points="287 138.26 220.6 138.26 187.4 195.76 220.6 253.26 287 253.26 320.2 195.76 287 138.26"/>
  </g>
  <g>
    <path class="cls-4" d="M480.9,160.6H32.9a32,32,0,0,0-32,32v80a16,16,0,0,0,16,16h480a16,16,0,0,0,16-16h0v-80a32,32,0,0,0-32-32Z" transform="translate(-0.9 -13.74)"/>
    <path class="cls-4" d="M480.9,160.6H32.9a32,32,0,0,0-32,32v80a16,16,0,0,0,16,16h480a16,16,0,0,0,16-16h0v-80a32,32,0,0,0-32-32Z" transform="translate(-0.9 -13.74)"/>
    <g class="cls-5">
      <rect class="cls-4" x="299.9" y="199.26" width="22.3" height="22.3"/>
    </g>
    <g class="cls-5">
      <g>
        <path class="cls-6" d="M89.9,267.8c-7.5-7.2-15-14.5-22.5-21.7-.2,29.2-.3,58.5-.5,87.7h23Z" transform="translate(-0.9 -13.74)"/>
        <path class="cls-7" d="M89.9,267.8c-7.5-7.2-15-14.5-22.5-21.7-.2,29.2-.3,58.5-.5,87.7h23Z" transform="translate(-0.9 -13.74)"/>
      </g>
    </g>
    <g class="cls-5">
      <g>
        <path class="cls-6" d="M419,267.8c7.5-7.2,15-14.5,22.5-21.7.2,29.2.3,58.5.5,87.7H419Z" transform="translate(-0.9 -13.74)"/>
        <path class="cls-7" d="M419,267.8c7.5-7.2,15-14.5,22.5-21.7.2,29.2.3,58.5.5,87.7H419Z" transform="translate(-0.9 -13.74)"/>
      </g>
    </g>
    <g class="cls-5">
      <g>
        <path class="cls-6" d="M290.7,222.5v-.2c-11.7.1-23.4.1-35,.2v-.3c-12.2.1-24.3.1-36.5.2v.1H206.6v-.1c-25.1-.1-50.1-.3-75.2-.4,7.2-7.5,14.5-15,21.7-22.5H356.6c7.2,7.5,14.5,15,21.7,22.5C349.2,222.2,319.9,222.3,290.7,222.5Z" transform="translate(-0.9 -13.74)"/>
        <path class="cls-7" d="M290.7,222.5v-.2c-11.7.1-23.4.1-35,.2v-.3c-12.2.1-24.3.1-36.5.2v.1H206.6v-.1c-25.1-.1-50.1-.3-75.2-.4,7.2-7.5,14.5-15,21.7-22.5H356.6c7.2,7.5,14.5,15,21.7,22.5C349.2,222.2,319.9,222.3,290.7,222.5Z" transform="translate(-0.9 -13.74)"/>
      </g>
    </g>
    <g class="cls-5">
      <g>
        <circle class="cls-8" cx="86.5" cy="197.86" r="13.5"/>
        <circle class="cls-7" cx="86.5" cy="197.86" r="13.5"/>
      </g>
    </g>
    <g class="cls-5">
      <g>
        <circle class="cls-8" cx="420.1" cy="197.96" r="13.5"/>
        <circle class="cls-7" cx="420.1" cy="197.96" r="13.5"/>
      </g>
    </g>
    <g class="cls-5">
      <g>
        <path class="cls-9" d="M33.9,195.3l-22.6-3a30.08,30.08,0,0,1,16.1-18.8C29.6,180.7,31.8,188,33.9,195.3Z" transform="translate(-0.9 -13.74)"/>
        <path class="cls-7" d="M33.9,195.3l-22.6-3a30.08,30.08,0,0,1,16.1-18.8C29.6,180.7,31.8,188,33.9,195.3Z" transform="translate(-0.9 -13.74)"/>
      </g>
    </g>
    <g class="cls-5">
      <g>
        <path class="cls-9" d="M481.9,194.3l22.6-3a30.08,30.08,0,0,0-16.1-18.8C486.2,179.7,484.1,187,481.9,194.3Z" transform="translate(-0.9 -13.74)"/>
        <path class="cls-7" d="M481.9,194.3l22.6-3a30.08,30.08,0,0,0-16.1-18.8C486.2,179.7,484.1,187,481.9,194.3Z" transform="translate(-0.9 -13.74)"/>
      </g>
    </g>
    <g class="cls-5">
      <g>
        <path class="cls-6" d="M89.9,267.8c-7.5-7.2-15-14.5-22.5-21.7-.2,29.2-.3,58.5-.5,87.7h23Z" transform="translate(-0.9 -13.74)"/>
        <path class="cls-6" d="M89.9,267.8c-7.5-7.2-15-14.5-22.5-21.7-.2,29.2-.3,58.5-.5,87.7h23Z" transform="translate(-0.9 -13.74)"/>
      </g>
    </g>
    <g class="cls-5">
      <g>
        <path class="cls-6" d="M419,267.8c7.5-7.2,15-14.5,22.5-21.7.2,29.2.3,58.5.5,87.7H419Z" transform="translate(-0.9 -13.74)"/>
        <path class="cls-6" d="M419,267.8c7.5-7.2,15-14.5,22.5-21.7.2,29.2.3,58.5.5,87.7H419Z" transform="translate(-0.9 -13.74)"/>
      </g>
    </g>
    <g class="cls-5">
      <g>
        <path class="cls-6" d="M290.7,222.5v-.2c-11.7.1-23.4.1-35,.2v-.3c-12.2.1-24.3.1-36.5.2v.1H206.6v-.1c-25.1-.1-50.1-.3-75.2-.4,7.2-7.5,14.5-15,21.7-22.5H356.6c7.2,7.5,14.5,15,21.7,22.5C349.2,222.2,319.9,222.3,290.7,222.5Z" transform="translate(-0.9 -13.74)"/>
        <path class="cls-6" d="M290.7,222.5v-.2c-11.7.1-23.4.1-35,.2v-.3c-12.2.1-24.3.1-36.5.2v.1H206.6v-.1c-25.1-.1-50.1-.3-75.2-.4,7.2-7.5,14.5-15,21.7-22.5H356.6c7.2,7.5,14.5,15,21.7,22.5C349.2,222.2,319.9,222.3,290.7,222.5Z" transform="translate(-0.9 -13.74)"/>
      </g>
    </g>
    <g class="cls-5">
      <g>
        <circle class="cls-8" cx="86.5" cy="197.86" r="13.5"/>
        <circle class="cls-7" cx="86.5" cy="197.86" r="13.5"/>
      </g>
    </g>
    <g class="cls-5">
      <g>
        <circle class="cls-8" cx="420.1" cy="197.96" r="13.5"/>
        <circle class="cls-7" cx="420.1" cy="197.96" r="13.5"/>
      </g>
    </g>
    <g class="cls-5">
      <g>
        <path class="cls-9" d="M33.9,195.3l-22.6-3a30.08,30.08,0,0,1,16.1-18.8C29.6,180.7,31.8,188,33.9,195.3Z" transform="translate(-0.9 -13.74)"/>
        <path class="cls-10" d="M33.9,195.3l-22.6-3a30.08,30.08,0,0,1,16.1-18.8C29.6,180.7,31.8,188,33.9,195.3Z" transform="translate(-0.9 -13.74)"/>
      </g>
    </g>
    <g class="cls-5">
      <g>
        <path class="cls-9" d="M481.9,194.3l22.6-3a30.08,30.08,0,0,0-16.1-18.8C486.2,179.7,484.1,187,481.9,194.3Z" transform="translate(-0.9 -13.74)"/>
        <path class="cls-10" d="M481.9,194.3l22.6-3a30.08,30.08,0,0,0-16.1-18.8C486.2,179.7,484.1,187,481.9,194.3Z" transform="translate(-0.9 -13.74)"/>
      </g>
    </g>
    <g class="cls-5">
      <g>
        <path class="cls-11" d="M367.1,365.9H144.9a23.69,23.69,0,0,1-23.7-23.7V272.4a23.69,23.69,0,0,1,23.7-23.7H367.1a23.69,23.69,0,0,1,23.7,23.7v69.8A23.69,23.69,0,0,1,367.1,365.9Z" transform="translate(-0.9 -13.74)"/>
        <path class="cls-4" d="M367.1,365.9H144.9a23.69,23.69,0,0,1-23.7-23.7V272.4a23.69,23.69,0,0,1,23.7-23.7H367.1a23.69,23.69,0,0,1,23.7,23.7v69.8A23.69,23.69,0,0,1,367.1,365.9Z" transform="translate(-0.9 -13.74)"/>
      </g>
    </g>
  </g>
  <g>
    <path class="cls-4" d="M33.9,320.6v128a32,32,0,0,0,31.5,32v.5l384.5-.5a32,32,0,0,0,32-32v-128Z" transform="translate(-0.9 -13.74)"/>
    <g class="cls-12">
      <g>
        <g>
          <path class="cls-6" d="M91,377c-7.5,7.2-15,14.5-22.5,21.7-.2-29.2-.3-58.5-.5-87.7H91Z" transform="translate(-0.9 -13.74)"/>
          <path class="cls-7" d="M91,377c-7.5,7.2-15,14.5-22.5,21.7-.2-29.2-.3-58.5-.5-87.7H91Z" transform="translate(-0.9 -13.74)"/>
        </g>
        <g>
          <path class="cls-6" d="M420.1,377c7.5,7.2,15,14.5,22.5,21.7.2-29.2.3-58.5.5-87.7h-23Z" transform="translate(-0.9 -13.74)"/>
          <path class="cls-7" d="M420.1,377c7.5,7.2,15,14.5,22.5,21.7.2-29.2.3-58.5.5-87.7h-23Z" transform="translate(-0.9 -13.74)"/>
        </g>
        <g>
          <path class="cls-6" d="M291.7,422.3v.2c-11.7-.1-23.4-.1-35-.2v.3c-12.2-.1-24.3-.1-36.5-.2v-.1H207.6v.1c-25.1.1-50.1.3-75.2.4,7.2,7.5,14.5,15,21.7,22.5H357.6c7.2-7.5,14.5-15,21.7-22.5Q335.65,422.5,291.7,422.3Z" transform="translate(-0.9 -13.74)"/>
          <path class="cls-7" d="M291.7,422.3v.2c-11.7-.1-23.4-.1-35-.2v.3c-12.2-.1-24.3-.1-36.5-.2v-.1H207.6v.1c-25.1.1-50.1.3-75.2.4,7.2,7.5,14.5,15,21.7,22.5H357.6c7.2-7.5,14.5-15,21.7-22.5Q335.65,422.5,291.7,422.3Z" transform="translate(-0.9 -13.74)"/>
        </g>
        <g>
          <circle class="cls-8" cx="87.6" cy="419.46" r="13.5"/>
          <circle class="cls-7" cx="87.6" cy="419.46" r="13.5"/>
        </g>
        <g>
          <circle class="cls-8" cx="421.1" cy="419.36" r="13.5"/>
          <circle class="cls-7" cx="421.1" cy="419.36" r="13.5"/>
        </g>
        <g>
          <path class="cls-9" d="M63.5,449.5l-22.6,3A30.08,30.08,0,0,0,57,471.3C59.2,464,61.3,456.7,63.5,449.5Z" transform="translate(-0.9 -13.74)"/>
          <path class="cls-7" d="M63.5,449.5l-22.6,3A30.08,30.08,0,0,0,57,471.3C59.2,464,61.3,456.7,63.5,449.5Z" transform="translate(-0.9 -13.74)"/>
        </g>
        <g>
          <path class="cls-9" d="M454.5,450.5l22.6,3A30.08,30.08,0,0,1,461,472.3C458.8,465,456.6,457.7,454.5,450.5Z" transform="translate(-0.9 -13.74)"/>
          <path class="cls-7" d="M454.5,450.5l22.6,3A30.08,30.08,0,0,1,461,472.3C458.8,465,456.6,457.7,454.5,450.5Z" transform="translate(-0.9 -13.74)"/>
        </g>
        <g>
          <path class="cls-11" d="M367.1,395.9H144.9a23.69,23.69,0,0,1-23.7-23.7V302.4a23.69,23.69,0,0,1,23.7-23.7H367.1a23.69,23.69,0,0,1,23.7,23.7v69.8A23.69,23.69,0,0,1,367.1,395.9Z" transform="translate(-0.9 -13.74)"/>
          <path class="cls-13" d="M367.1,395.9H144.9a23.69,23.69,0,0,1-23.7-23.7V302.4a23.69,23.69,0,0,1,23.7-23.7H367.1a23.69,23.69,0,0,1,23.7,23.7v69.8A23.69,23.69,0,0,1,367.1,395.9Z" transform="translate(-0.9 -13.74)"/>
        </g>
      </g>
    </g>
    <g class="cls-12">
      <g>
        <g>
          <path class="cls-6" d="M91,377c-7.5,7.2-15,14.5-22.5,21.7-.2-29.2-.3-58.5-.5-87.7H91Z" transform="translate(-0.9 -13.74)"/>
          <path class="cls-6" d="M91,377c-7.5,7.2-15,14.5-22.5,21.7-.2-29.2-.3-58.5-.5-87.7H91Z" transform="translate(-0.9 -13.74)"/>
        </g>
        <g>
          <path class="cls-6" d="M420.1,377c7.5,7.2,15,14.5,22.5,21.7.2-29.2.3-58.5.5-87.7h-23Z" transform="translate(-0.9 -13.74)"/>
          <path class="cls-6" d="M420.1,377c7.5,7.2,15,14.5,22.5,21.7.2-29.2.3-58.5.5-87.7h-23Z" transform="translate(-0.9 -13.74)"/>
        </g>
        <g>
          <path class="cls-6" d="M291.7,422.3v.2c-11.7-.1-23.4-.1-35-.2v.3c-12.2-.1-24.3-.1-36.5-.2v-.1H207.6v.1c-25.1.1-50.1.3-75.2.4,7.2,7.5,14.5,15,21.7,22.5H357.6c7.2-7.5,14.5-15,21.7-22.5Q335.65,422.5,291.7,422.3Z" transform="translate(-0.9 -13.74)"/>
          <path class="cls-6" d="M291.7,422.3v.2c-11.7-.1-23.4-.1-35-.2v.3c-12.2-.1-24.3-.1-36.5-.2v-.1H207.6v.1c-25.1.1-50.1.3-75.2.4,7.2,7.5,14.5,15,21.7,22.5H357.6c7.2-7.5,14.5-15,21.7-22.5Q335.65,422.5,291.7,422.3Z" transform="translate(-0.9 -13.74)"/>
        </g>
        <g>
          <circle class="cls-8" cx="87.6" cy="419.46" r="13.5"/>
          <circle class="cls-7" cx="87.6" cy="419.46" r="13.5"/>
        </g>
        <g>
          <circle class="cls-8" cx="421.1" cy="419.36" r="13.5"/>
          <circle class="cls-7" cx="421.1" cy="419.36" r="13.5"/>
        </g>
        <g>
          <path class="cls-9" d="M63.5,449.5l-22.6,3A30.08,30.08,0,0,0,57,471.3C59.2,464,61.3,456.7,63.5,449.5Z" transform="translate(-0.9 -13.74)"/>
          <path class="cls-10" d="M63.5,449.5l-22.6,3A30.08,30.08,0,0,0,57,471.3C59.2,464,61.3,456.7,63.5,449.5Z" transform="translate(-0.9 -13.74)"/>
        </g>
        <g>
          <path class="cls-9" d="M454.5,450.5l22.6,3A30.08,30.08,0,0,1,461,472.3C458.8,465,456.6,457.7,454.5,450.5Z" transform="translate(-0.9 -13.74)"/>
          <path class="cls-10" d="M454.5,450.5l22.6,3A30.08,30.08,0,0,1,461,472.3C458.8,465,456.6,457.7,454.5,450.5Z" transform="translate(-0.9 -13.74)"/>
        </g>
        <g>
          <path class="cls-11" d="M367.1,395.9H144.9a23.69,23.69,0,0,1-23.7-23.7V302.4a23.69,23.69,0,0,1,23.7-23.7H367.1a23.69,23.69,0,0,1,23.7,23.7v69.8A23.69,23.69,0,0,1,367.1,395.9Z" transform="translate(-0.9 -13.74)"/>
          <path class="cls-4" d="M367.1,395.9H144.9a23.69,23.69,0,0,1-23.7-23.7V302.4a23.69,23.69,0,0,1,23.7-23.7H367.1a23.69,23.69,0,0,1,23.7,23.7v69.8A23.69,23.69,0,0,1,367.1,395.9Z" transform="translate(-0.9 -13.74)"/>
        </g>
      </g>
    </g>
  </g>
</svg>
