<svg id="Layer_1" data-name="Layer 1" xmlns="http://www.w3.org/2000/svg" xmlns:xlink="http://www.w3.org/1999/xlink" viewBox="0 0 555 444">
  <defs>
    <style>
      .cls-1, .cls-14, .cls-15, .cls-16, .cls-17, .cls-20 {
        fill: none;
      }

      .cls-12, .cls-2 {
        fill: #6d6d6d;
      }

      .cls-14, .cls-17, .cls-2 {
        stroke: #2b2d2c;
      }

      .cls-14, .cls-15, .cls-16, .cls-2, .cls-20 {
        stroke-miterlimit: 10;
      }

      .cls-2 {
        stroke-width: 3px;
      }

      .cls-3 {
        clip-path: url(#clip-path);
      }

      .cls-4 {
        fill: #fff;
      }

      .cls-5 {
        fill: #2d2c2b;
      }

      .cls-6 {
        fill: red;
      }

      .cls-7 {
        fill: #00ff48;
      }

      .cls-8 {
        fill: #00ffec;
      }

      .cls-9 {
        fill: #a54700;
      }

      .cls-10 {
        fill: #ae00ff;
      }

      .cls-11 {
        fill: #3a3531;
      }

      .cls-13 {
        clip-path: url(#clip-path-2);
      }

      .cls-14 {
        stroke-width: 2.99px;
      }

      .cls-15, .cls-16 {
        stroke: #0fa;
        stroke-width: 5px;
      }

      .cls-15 {
        stroke-dasharray: 12;
      }

      .cls-17 {
        stroke-linecap: square;
        stroke-linejoin: bevel;
        stroke-width: 3.5px;
      }

      .cls-18 {
        fill: #2b2d2c;
      }

      .cls-19 {
        fill: #ff00f9;
      }

      .cls-20 {
        stroke: #00ffc2;
        stroke-width: 2px;
      }
    </style>
    <clipPath id="clip-path">
      <rect class="cls-1" y="-145.5" width="555" height="735"/>
    </clipPath>
    <clipPath id="clip-path-2">
      <path class="cls-1" d="M248.4,99.5c-13.3,22.9-26.5,45.9-39.8,68.8A55.3,55.3,0,0,0,166.5,222V416.3a55.39,55.39,0,0,0,7.7,27.8H27.7A27.85,27.85,0,0,1,0,416.3V111A27.72,27.72,0,0,1,27.8,83.3H222a31.76,31.76,0,0,1,26.4,16.2Z"/>
    </clipPath>
  </defs>
  <title>cyberpunk_pack</title>
  <g>
    <polygon class="cls-2" points="315.4 125 264.6 125 239.2 169 264.6 213 315.4 213 340.8 169 315.4 125"/>
    <polygon class="cls-2" points="486 125 435.2 125 409.8 169 435.2 213 486 213 511.4 169 486 125"/>
    <polygon class="cls-2" points="399.8 73.7 349 73.7 323.6 117.7 349 161.7 399.8 161.7 425.2 117.7 399.8 73.7"/>
    <polygon class="cls-2" points="399.8 178 349 178 323.6 222 349 266 399.8 266 425.2 222 399.8 178"/>
  </g>
  <g class="cls-3">
    <g>
      <path class="cls-4" d="M460.4,375.1a21.1,21.1,0,0,0-1.6,3.4,19.52,19.52,0,0,1,2.3-1.7l1-1H462A3.29,3.29,0,0,1,460.4,375.1Z"/>
      <path class="cls-5" d="M388.5,305.3H555V222a27.85,27.85,0,0,0-27.7-27.8H222a27.85,27.85,0,0,0-27.8,27.7v83.3h.1V333h0v83.3A27.85,27.85,0,0,0,222,444.1H527.4a27.85,27.85,0,0,0,27.8-27.7V333h0V305.2l-166.7.1Z"/>
      <g>
        <g>
          <g>
            <path class="cls-6" d="M400.9,397.5v.1c-9.3,0-18.6-.1-28-.1v.2c-9.7-.1-19.4-.1-29.1-.2v-.1h-10v.1l-60,.3c5.8,6,11.6,12,17.3,18H453.6c5.8-6,11.6-12,17.3-18Q435.8,397.8,400.9,397.5Z"/>
            <path class="cls-6" d="M400.9,397.5v.1c-9.3,0-18.6-.1-28-.1v.2c-9.7-.1-19.4-.1-29.1-.2v-.1h-10v.1l-60,.3c5.8,6,11.6,12,17.3,18H453.6c5.8-6,11.6-12,17.3-18Q435.8,397.8,400.9,397.5Z"/>
          </g>
          <g>
            <circle class="cls-7" cx="238.7" cy="406.2" r="10.8"/>
            <circle class="cls-8" cx="238.7" cy="406.2" r="10.8"/>
          </g>
          <g>
            <circle class="cls-7" cx="504.8" cy="406.2" r="10.8"/>
            <circle class="cls-8" cx="504.8" cy="406.2" r="10.8"/>
          </g>
          <g>
            <path class="cls-9" d="M218.7,419.3l-18,2.4a24.06,24.06,0,0,0,12.8,15C215.3,430.9,217,425.1,218.7,419.3Z"/>
            <path class="cls-10" d="M218.7,419.3l-18,2.4a24.06,24.06,0,0,0,12.8,15C215.3,430.9,217,425.1,218.7,419.3Z"/>
          </g>
          <g>
            <path class="cls-9" d="M530.7,420l18,2.4a24.06,24.06,0,0,1-12.8,15C534.2,431.7,532.5,425.9,530.7,420Z"/>
            <path class="cls-10" d="M530.7,420l18,2.4a24.06,24.06,0,0,1-12.8,15C534.2,431.7,532.5,425.9,530.7,420Z"/>
          </g>
        </g>
        <g>
          <g>
            <path class="cls-6" d="M222.7,259.7c-.1,16.3-.2,32.7-.3,49h-.1c0,3.5,0,7,.1,10.5s0,7-.1,10.5h.1c.1,16.3.2,32.7.3,49,6-5.8,12-11.6,18-17.3V277C234.7,271.3,228.7,265.5,222.7,259.7Z"/>
            <path class="cls-6" d="M222.7,259.7c-.1,16.3-.2,32.7-.3,49h-.1c0,3.5,0,7,.1,10.5s0,7-.1,10.5h.1c.1,16.3.2,32.7.3,49,6-5.8,12-11.6,18-17.3V277C234.7,271.3,228.7,265.5,222.7,259.7Z"/>
          </g>
          <g>
            <path class="cls-6" d="M521.6,319.2c0-3.5,0-7,.1-10.5h-.1c-.1-16.3-.2-32.7-.3-49-6,5.8-12,11.6-18,17.3v84.3c6,5.8,12,11.6,18,17.3.1-16.3.2-32.7.3-49h.1C521.7,326.2,521.6,322.7,521.6,319.2Z"/>
            <path class="cls-6" d="M521.6,319.2c0-3.5,0-7,.1-10.5h-.1c-.1-16.3-.2-32.7-.3-49-6,5.8-12,11.6-18,17.3v84.3c6,5.8,12,11.6,18,17.3.1-16.3.2-32.7.3-49h.1C521.7,326.2,521.6,322.7,521.6,319.2Z"/>
          </g>
          <g>
            <path class="cls-6" d="M400.9,240.9v-.1c-9.3,0-18.6.1-28,.1v-.2c-9.7.1-19.4.1-29.1.2v.1h-10v-.1l-60-.3c5.8-6,11.6-12,17.3-18H453.6c5.8,6,11.6,12,17.3,18Z"/>
            <path class="cls-6" d="M400.9,240.9v-.1c-9.3,0-18.6.1-28,.1v-.2c-9.7.1-19.4.1-29.1.2v.1h-10v-.1l-60-.3c5.8-6,11.6-12,17.3-18H453.6c5.8,6,11.6,12,17.3,18Z"/>
          </g>
          <g>
            <circle class="cls-7" cx="238.7" cy="232.2" r="10.8"/>
            <circle class="cls-8" cx="238.7" cy="232.2" r="10.8"/>
          </g>
          <g>
            <circle class="cls-7" cx="504.8" cy="232.3" r="10.8"/>
            <circle class="cls-8" cx="504.8" cy="232.3" r="10.8"/>
          </g>
          <g>
            <path class="cls-9" d="M218.7,219.2l-18-2.4a24.06,24.06,0,0,1,12.8-15C215.3,207.6,217,213.4,218.7,219.2Z"/>
            <path class="cls-10" d="M218.7,219.2l-18-2.4a24.06,24.06,0,0,1,12.8-15C215.3,207.6,217,213.4,218.7,219.2Z"/>
          </g>
          <g>
            <path class="cls-9" d="M530.7,218.4l18-2.4a24.06,24.06,0,0,0-12.8-15C534.2,206.8,532.5,212.6,530.7,218.4Z"/>
            <path class="cls-10" d="M530.7,218.4l18-2.4a24.06,24.06,0,0,0-12.8-15C534.2,206.8,532.5,212.6,530.7,218.4Z"/>
          </g>
          <g>
            <path class="cls-11" d="M456.2,261.9H288.5a23.69,23.69,0,0,0-23.7,23.7v67.2a23.69,23.69,0,0,0,23.7,23.7H456.2a23.69,23.69,0,0,0,23.7-23.7V285.6A23.75,23.75,0,0,0,456.2,261.9Z"/>
            <path class="cls-5" d="M456.2,261.9H288.5a23.69,23.69,0,0,0-23.7,23.7v67.2a23.69,23.69,0,0,0,23.7,23.7H456.2a23.69,23.69,0,0,0,23.7-23.7V285.6A23.75,23.75,0,0,0,456.2,261.9Z"/>
          </g>
        </g>
      </g>
    </g>
  </g>
  <g>
    <path class="cls-12" d="M248.4,99.5c-13.3,22.9-26.5,45.9-39.8,68.8A55.3,55.3,0,0,0,166.5,222V416.3a55.39,55.39,0,0,0,7.7,27.8H27.7A27.85,27.85,0,0,1,0,416.3V111A27.72,27.72,0,0,1,27.8,83.3H222a31.76,31.76,0,0,1,26.4,16.2Z"/>
    <g class="cls-13">
      <g>
        <rect class="cls-12" x="30.5" y="169.1" width="192.2" height="193.7"/>
        <rect class="cls-14" x="30.5" y="169.1" width="192.2" height="193.7"/>
      </g>
    </g>
    <g class="cls-13">
      <line class="cls-15" x1="45" y1="180.9" x2="45" y2="351.8"/>
    </g>
    <g class="cls-13">
      <line class="cls-15" x1="61.3" y1="180.9" x2="61.3" y2="351.8"/>
    </g>
    <g class="cls-13">
      <line class="cls-15" x1="75.8" y1="250.5" x2="75.8" y2="352"/>
    </g>
    <g class="cls-13">
      <g>
        <line class="cls-16" x1="11" y1="107" x2="27.4" y2="123.3"/>
        <line class="cls-16" x1="17.3" y1="100.7" x2="33.7" y2="117"/>
        <line class="cls-16" x1="230.5" y1="107" x2="214.2" y2="123.3"/>
        <line class="cls-16" x1="224.2" y1="100.7" x2="207.9" y2="117"/>
      </g>
    </g>
    <g class="cls-13">
      <g>
        <line class="cls-16" x1="10.2" y1="384.6" x2="29.7" y2="372"/>
        <line class="cls-16" x1="15.1" y1="392" x2="34.5" y2="379.4"/>
        <line class="cls-16" x1="230.5" y1="387" x2="214.2" y2="370.7"/>
        <line class="cls-16" x1="224.2" y1="393.3" x2="207.9" y2="377"/>
      </g>
    </g>
    <g class="cls-13">
      <g>
        <path class="cls-17" d="M194.2,105.3c-14.9,0-29.9.1-44.8.1,0,14,.1,28,.1,42Q172,126.4,194.2,105.3Z"/>
        <path class="cls-17" d="M153.4,151.4c14.9,0,29.9-.1,44.8-.1,0-14-.1-28-.1-42Q175.75,130.45,153.4,151.4Z"/>
      </g>
    </g>
    <g class="cls-13">
      <g>
        <path class="cls-17" d="M194.2,382.4c-14.9,0-29.9.1-44.8.1,0,14,.1,28,.1,42C164.5,410.5,179.4,396.4,194.2,382.4Z"/>
        <path class="cls-17" d="M153.4,428.5c14.9,0,29.9-.1,44.8-.1,0-14-.1-28-.1-42C183.2,400.4,168.3,414.5,153.4,428.5Z"/>
      </g>
    </g>
    <g class="cls-13">
      <g>
        <path class="cls-17" d="M51.2,105.3c14.9,0,29.9.1,44.8.1,0,14-.1,28-.1,42Q73.55,126.4,51.2,105.3Z"/>
        <path class="cls-17" d="M92,151.4c-14.9,0-29.9-.1-44.8-.1,0-14,.1-28,.1-42Q69.65,130.45,92,151.4Z"/>
      </g>
    </g>
    <g class="cls-13">
      <g>
        <path class="cls-17" d="M51.2,383.4c14.9,0,29.9.1,44.8.1,0,14-.1,28-.1,42Q73.55,404.35,51.2,383.4Z"/>
        <path class="cls-17" d="M92,429.5c-14.9,0-29.9-.1-44.8-.1,0-14,.1-28,.1-42Q69.65,408.4,92,429.5Z"/>
      </g>
    </g>
    <g class="cls-13">
      <polygon class="cls-18" points="31.3 167.5 -138.1 69.7 -307.7 167.8 -307.9 363.8 -138.5 461.6 31.1 363.4 31.3 167.5"/>
    </g>
  </g>
  <g>
    <path class="cls-19" d="M212.4,32.6c-21.9,15.2-43.9,30.3-65.8,45.5h47.8Q203.4,55.45,212.4,32.6Z"/>
    <path class="cls-19" d="M120.2,74.6Q87.35,51.8,54.4,29.1h47.8Q111.2,51.75,120.2,74.6Z"/>
    <path class="cls-19" d="M129.7,74.6c21.9-15.2,43.9-30.3,65.8-45.5H147.7Q138.7,51.75,129.7,74.6Z"/>
    <path class="cls-19" d="M37,32.6q32.85,22.8,65.8,45.5H55Q46,55.45,37,32.6Z"/>
    <polygon class="cls-19" points="125.1 61.9 144.4 15.4 105.8 15.4 125.1 61.9"/>
  </g>
  <g>
    <path class="cls-20" d="M206.3,40.2c-16.6,11.5-33.1,22.9-49.7,34.4h36.1C197.3,63.1,201.8,51.7,206.3,40.2Z"/>
    <path class="cls-20" d="M110.8,63.4Q89.5,48.55,68,33.8H99.1C103,43.6,106.9,53.5,110.8,63.4Z"/>
    <path class="cls-20" d="M136,66.7c16.4-11.4,32.8-22.7,49.3-34.1H149.5C145,44,140.5,55.3,136,66.7Z"/>
    <path class="cls-20" d="M45,42.7C60.3,53.4,75.7,64,91,74.6H57.6C53.4,64,49.2,53.4,45,42.7Z"/>
    <polygon class="cls-20" points="125.1 53.6 139.2 19.5 111 19.5 125.1 53.6"/>
  </g>
</svg>
