<!DOCTYPE svg PUBLIC "-//W3C//DTD SVG 20010904//EN" "http://www.w3.org/TR/2001/REC-SVG-20010904/DTD/svg10.dtd">
<svg version="1.0" xmlns="http://www.w3.org/2000/svg" width="661px" height="693px" viewBox="0 0 6610 6930" preserveAspectRatio="xMidYMid meet">
<g id="layer101" stroke="none">
 <path d="M3829 6255 c-248 -40 -458 -122 -655 -253 -237 -159 -414 -361 -544 -621 -257 -513 -216 -1116 107 -1606 85 -128 290 -335 418 -422 492 -332 1109 -373 1635 -108 90 45 137 87 151 136 33 107 -74 212 -179 178 -20 -6 -53 -20 -73 -30 -114 -57 -416 -77 -606 -40 -458 90 -816 429 -941 891 -24 87 -26 112 -26 290 0 178 2 203 26 291 88 326 283 585 564 750 346 203 771 220 1130 45 374 -183 622 -527 674 -936 6 -47 15 -97 21 -112 12 -31 54 -49 86 -37 38 14 46 45 39 143 -18 256 -111 518 -267 753 -91 136 -284 332 -414 420 -174 117 -392 211 -593 254 -128 27 -427 35 -553 14z"/>
 <path d="M4277 5344 c-147 -33 -250 -89 -354 -193 -129 -130 -192 -275 -200 -461 -6 -133 13 -227 68 -339 68 -138 226 -287 355 -337 39 -15 47 -15 59 -3 8 8 55 149 105 314 50 165 97 310 105 322 9 13 26 25 38 28 14 4 140 -29 326 -85 279 -84 305 -90 320 -75 24 24 28 207 6 299 -29 124 -86 227 -178 323 -140 146 -282 211 -477 219 -72 2 -127 -1 -173 -12z"/>
 <path d="M1392 4662 c-71 -26 -118 -66 -156 -132 -28 -49 -31 -64 -31 -135 0 -81 6 -102 60 -191 11 -19 16 -39 12 -55 -3 -13 -102 -123 -219 -244 -117 -121 -229 -243 -250 -270 -131 -180 -182 -411 -135 -616 22 -95 59 -155 134 -214 171 -136 392 -194 768 -202 254 -6 445 9 701 53 164 27 179 25 318 -46 325 -167 534 -452 621 -850 22 -101 32 -434 16 -555 -27 -205 -120 -305 -283 -305 -128 0 -277 58 -450 176 -45 31 -130 85 -188 120 -431 256 -627 511 -540 703 27 58 25 71 -5 71 -65 0 -124 -69 -125 -146 0 -53 31 -137 78 -209 60 -94 269 -299 418 -412 246 -186 702 -469 826 -512 193 -66 370 -40 496 74 176 159 275 467 288 895 3 100 12 197 19 225 41 148 213 265 390 265 71 0 80 -7 116 -84 81 -175 361 -343 872 -523 122 -43 140 -46 227 -47 374 0 580 222 580 623 0 137 -12 232 -52 393 -17 71 -28 137 -24 151 3 15 27 37 66 61 134 83 183 231 122 369 -63 142 -241 204 -384 134 -127 -62 -185 -200 -144 -342 24 -81 99 -156 182 -181 32 -10 70 -28 84 -41 25 -23 25 -26 28 -214 5 -282 -19 -422 -80 -474 -37 -31 -63 -31 -174 0 -180 51 -361 162 -465 286 -155 183 -226 361 -275 687 -3 17 -9 32 -15 32 -5 0 -56 -27 -111 -60 -249 -147 -512 -209 -796 -189 -183 13 -306 51 -532 164 -476 239 -801 533 -972 882 -33 68 -64 123 -69 123 -4 0 -24 -30 -43 -67 -177 -336 -532 -564 -1001 -645 -171 -29 -308 -23 -388 15 -84 41 -108 98 -68 162 55 92 466 722 478 735 11 12 40 15 131 15 112 0 119 1 172 31 166 93 198 316 65 449 -76 75 -194 102 -293 67z"/>
 <path d="M2114 2274 c-104 -37 -177 -145 -177 -262 0 -157 104 -270 258 -280 95 -6 160 15 218 71 59 58 80 107 85 195 4 66 1 79 -28 139 -33 67 -85 115 -153 140 -44 16 -154 14 -203 -3z"/>
 </g>

</svg>
