<svg xmlns="http://www.w3.org/2000/svg" viewBox="0 0 504.29 489.04"><defs><style>.cls-1,.cls-12{fill:#c39961;}.cls-1{stroke:#545454;stroke-width:3px;}.cls-1,.cls-3{stroke-linecap:round;stroke-linejoin:round;}.cls-2{fill:#1a1a1a;stroke:#1a1a1a;stroke-width:2.64px;}.cls-11,.cls-12,.cls-13,.cls-2,.cls-4{stroke-miterlimit:10;}.cls-3{fill:#a6a6a6;stroke:#231f20;stroke-width:3.51px;}.cls-11,.cls-4,.cls-5{fill:none;}.cls-4{stroke:#c1c1c1;stroke-width:3.39px;}.cls-6{fill:#e06a67;}.cls-7{fill:#d84541;}.cls-8{fill:#d9d9d9;}.cls-9{fill:#edf0f2;}.cls-10{fill:#afafaf;}.cls-11,.cls-12,.cls-13{stroke:#606060;stroke-width:4.16px;}.cls-13{fill:#606060;}</style></defs><title>carboxAsset 3</title><g id="Layer_2" data-name="Layer 2"><g id="Layer_13" data-name="Layer 13"><path class="cls-1" d="M29.15,455.54a32,32,0,0,0,32,32h160v-160h-192Zm256,32h160a32,32,0,0,0,32-32v-128h-192Z"/><path class="cls-2" d="M483.71,41.79,458.74,64,444.8,65.55,424.08,48.31s-.24-10.19,1.84-12.81c5.75-7.23,11.55-12.59,23.11-23.08-8.79-7.14-35.2,7.61-43.91,14.7-5.39,4.38-11.89,17-12.94,23.5-1.46,9.09,5.59,33.68,7.57,40.29A12.29,12.29,0,0,0,399,92L288.08,293.46H323.9L427.63,105l1.29.58s32.38,6.27,44.16-15.13A90,90,0,0,0,483.71,41.79Z"/><path class="cls-3" d="M480.49,33l-25,22.25-13.95,1.51L420.86,39.54s-.24-10.18,1.84-12.8c5.75-7.23,11.55-12.59,23.11-23.08C437-3.48,410.62,11.27,401.9,18.35c-5.39,4.38-11.89,17-12.94,23.51-1.46,9.09,5.6,33.67,7.57,40.29-.26.37-.55.71-.78,1.11L280,293.46h35.82L424.42,96.27l1.29.58s32.37,6.27,44.15-15.14A90,90,0,0,0,480.49,33Z"/><line class="cls-4" x1="404.14" y1="85.1" x2="291.62" y2="289.48"/><path class="cls-5" d="M220.26,190.55a3,3,0,0,0,5.11-2.12V168.34a23.13,23.13,0,0,0-23.14-23.13H182.14a3,3,0,0,0-2.11,5.1Z"/><path class="cls-6" d="M108.74,241.75a13,13,0,0,1,3.8-9.18l44.67-44.67a3.23,3.23,0,0,1,4.55,0l44.67,44.67a13,13,0,0,1,3.8,9.18v54.09l36.6.12V163.85a40.11,40.11,0,0,0-40.11-40.11H164.55a13,13,0,0,0-9.18,3.81L93.74,189.18,76,207a13,13,0,0,0-3.81,9.18v79.24l36.6.12Zm73.4-96.54h20.09a23.13,23.13,0,0,1,23.14,23.13v20.09a3,3,0,0,1-5.11,2.12L180,150.31A3,3,0,0,1,182.14,145.21Z"/><path class="cls-7" d="M206.43,232.57,161.76,187.9a3.23,3.23,0,0,0-4.55,0l-44.67,44.67a13,13,0,0,0-3.8,9.18v53.76l101.49.33V241.75A13,13,0,0,0,206.43,232.57Z"/><path class="cls-8" d="M132.19,140a13.05,13.05,0,0,0-18.45,0l-5.39,5.39L93.74,160l-5.39,5.39a13.05,13.05,0,0,0,0,18.45l5.39,5.39,43.83-43.84ZM97.4,182.34a1.51,1.51,0,0,1-2.13,0L87,174.07A1.5,1.5,0,1,1,89.13,172l8.27,8.27A1.51,1.51,0,0,1,97.4,182.34Zm8.27-8.27a1.51,1.51,0,0,1-2.13,0l-8.27-8.27a1.5,1.5,0,0,1,2.13-2.12l8.27,8.27A1.51,1.51,0,0,1,105.67,174.07Zm8.27-8.27a1.51,1.51,0,0,1-2.13,0l-8.27-8.27a1.5,1.5,0,0,1,2.13-2.12l8.27,8.27A1.51,1.51,0,0,1,113.94,165.8Zm8.27-8.27a1.51,1.51,0,0,1-2.13,0l-8.27-8.27a1.5,1.5,0,0,1,2.13-2.12l8.27,8.27A1.51,1.51,0,0,1,122.21,157.53Zm8.26-8.27a1.49,1.49,0,0,1-1.06.44,1.53,1.53,0,0,1-1.06-.44L120.08,141a1.5,1.5,0,0,1,2.13-2.12l8.26,8.27A1.49,1.49,0,0,1,130.47,149.26Z"/><rect class="cls-9" x="80.3" y="127.5" width="20.66" height="29.46" transform="translate(-74.03 105.74) rotate(-45)"/><path class="cls-9" d="M34.39,123.09a2,2,0,0,0-.07,2.84L46.2,137.81a2,2,0,0,0,2.6.14,18,18,0,0,1,24.11,1.17l14.61-14.61A38.62,38.62,0,0,0,34.39,123.09Z"/><path class="cls-10" d="M89.13,172A1.5,1.5,0,1,0,87,174.07l8.26,8.27a1.51,1.51,0,0,0,2.13,0,1.51,1.51,0,0,0,0-2.12Z"/><path class="cls-10" d="M97.4,163.68a1.5,1.5,0,0,0-2.13,2.12l8.27,8.27a1.51,1.51,0,0,0,2.13,0,1.51,1.51,0,0,0,0-2.12Z"/><path class="cls-10" d="M105.67,155.41a1.5,1.5,0,0,0-2.13,2.12l8.27,8.27a1.51,1.51,0,0,0,2.13,0,1.51,1.51,0,0,0,0-2.12Z"/><path class="cls-10" d="M113.94,147.14a1.5,1.5,0,0,0-2.13,2.12l8.27,8.27a1.51,1.51,0,0,0,2.13,0,1.51,1.51,0,0,0,0-2.12Z"/><path class="cls-10" d="M122.21,138.87a1.5,1.5,0,0,0-2.13,2.12l8.27,8.27a1.53,1.53,0,0,0,1.06.44,1.5,1.5,0,0,0,1.06-2.56Z"/><path class="cls-11" d="M289.14,231.84h0A57.22,57.22,0,0,0,261,219,57.22,57.22,0,0,1,289.14,231.84Z"/><path class="cls-11" d="M221.41,54.11l2.46-.33Z"/><path class="cls-11" d="M261,219a57.27,57.27,0,0,0-8.26-.68A57.27,57.27,0,0,1,261,219Z"/><path class="cls-11" d="M437.66,150.57a222.34,222.34,0,0,1,13.54,22.88A222.34,222.34,0,0,0,437.66,150.57Z"/><path class="cls-11" d="M248.81,52h0Z"/><path class="cls-11" d="M208.16,238.78c-.82,1-1.6,2-2.35,3,.75-1,1.53-2,2.35-3A57.24,57.24,0,0,1,239,219.83,57.24,57.24,0,0,0,208.16,238.78Z"/><path class="cls-11" d="M205.81,241.76c-1,1.4-2,2.85-2.85,4.33C203.85,244.61,204.79,243.16,205.81,241.76Z"/><path class="cls-11" d="M250,218.37c-1.84.07-3.67.23-5.49.47C246.29,218.6,248.12,218.44,250,218.37Z"/><path class="cls-11" d="M173.57,285.79a16.92,16.92,0,0,0-3.22.83,14.53,14.53,0,0,0-1.46.62q-.7.35-1.38.75c-.49.29-.93.63-1.38,1l-.69.52a17.41,17.41,0,0,0-4.71,5.92h31.11A17.29,17.29,0,0,0,173.57,285.79Z"/><path class="cls-11" d="M57.53,165.42q2.53-4.47,5.28-8.83Q60.07,160.94,57.53,165.42Z"/><path class="cls-11" d="M71.48,143.79q3-4.17,6.27-8.2Q74.51,139.61,71.48,143.79Z"/><path class="cls-11" d="M28.29,274c0-1.75.05-3.49.11-5.23C28.34,270.53,28.31,272.27,28.29,274Z"/><path class="cls-11" d="M200.48,58c.91-.22,1.83-.43,2.75-.63C202.31,57.61,201.39,57.82,200.48,58Z"/><path class="cls-11" d="M77.75,135.59q4.94-6.17,10.32-12Q82.7,129.42,77.75,135.59Z"/><path class="cls-11" d="M129.94,88.28a222,222,0,0,1,20.7-12A222,222,0,0,0,129.94,88.28Z"/><path class="cls-11" d="M95.06,116.38l0,0Z"/><path class="cls-11" d="M107,105.44q3.59-3,7.3-6Q110.55,102.4,107,105.44Z"/><path class="cls-11" d="M99.15,112.45q3.42-3.21,7-6.29Q102.58,109.23,99.15,112.45Z"/><path class="cls-11" d="M400.31,199.39l55.58-16.23q-2.24-4.93-4.69-9.71,2.44,4.78,4.69,9.71Z"/><path class="cls-11" d="M322.41,231.38a15.27,15.27,0,0,0-2.15,1,17.3,17.3,0,1,0,2.15-1Z"/><path class="cls-11" d="M372.92,218.44a12.21,12.21,0,1,0,15.65,7.31A12.21,12.21,0,0,0,372.92,218.44Z"/><path class="cls-11" d="M419.61,206.89A8.14,8.14,0,1,0,430,211.76,8.15,8.15,0,0,0,419.61,206.89Z"/><path class="cls-11" d="M298.75,263.11c-.34-1.27-.74-2.52-1.19-3.76s-.95-2.46-1.5-3.65a48.32,48.32,0,0,0-88.12,39.69h88.39A48.15,48.15,0,0,0,298.75,263.11Z"/><path class="cls-11" d="M129.81,295.39l65.71-29.54A57.3,57.3,0,0,1,203,246.09c.89-1.48,1.83-2.93,2.85-4.33.75-1,1.53-2,2.35-3A57.24,57.24,0,0,1,239,219.83c1.79-.41,3.61-.74,5.43-1s3.65-.4,5.49-.47c.92,0,1.84-.05,2.76,0a57.37,57.37,0,0,1,36.42,13.51l111.17-32.45,55.58-16.23q-2.24-4.93-4.69-9.71a222.34,222.34,0,0,0-13.54-22.88q-3-4.38-6.09-8.58t-6.46-8.23c-1.1-1.35-2.22-2.67-3.36-4q-6.81-7.89-14.27-15.05c-1.24-1.2-2.5-2.38-3.76-3.54A225.22,225.22,0,0,0,249,52h-.14a223.08,223.08,0,0,0-24.94,1.77l-2.46.33q-9.09,1.26-18.18,3.3c-.92.2-1.84.41-2.75.63a223.72,223.72,0,0,0-70.54,30.24q-8.11,5.3-15.67,11.19-3.72,2.93-7.3,6l-.84.72q-3.55,3.07-7,6.29-2.06,1.92-4.05,3.89l0,0q-3.59,3.54-7,7.22-5.37,5.82-10.32,12-3.24,4-6.27,8.2t-5.88,8.47q-1.42,2.15-2.79,4.33-2.75,4.35-5.28,8.83-1.26,2.25-2.48,4.51-2.43,4.53-4.65,9.17t-4.24,9.37q-2,4.72-3.8,9.56-2.69,7.23-4.88,14.64-1.47,5-2.7,10-.62,2.5-1.18,5-1.68,7.56-2.83,15.25a223,223,0,0,0-2.37,25.89c-.06,1.74-.09,3.48-.11,5.23,0,3.49,0,7,.15,10.49s.37,7.25.69,10.88Z"/><path class="cls-11" d="M172.05,55.41C70.42,92.34,9.68,192.48,18,295.39h0C9.68,192.48,70.43,92.33,172.05,55.41Z"/><path class="cls-11" d="M466.49,179.5C416.46,68.64,288.22,13.21,172.05,55.41,288.21,13.21,416.46,68.64,466.49,179.5Z"/><path class="cls-11" d="M467.42,214.54,308.73,285.85a57.37,57.37,0,0,1-2.57,9.54h169A222.26,222.26,0,0,0,467.42,214.54Z"/><path class="cls-12" d="M36,178.19C90.79,57.42,233.12,4,353.88,58.77c92.28,44.3,143.53,140,135.4,236.62h12.13c8.12-101.16-46-201.29-142.93-247.25C232.37-9.87,83.13,45.33,25.12,171.43a250.25,250.25,0,0,0-22.31,124H15.16A238.91,238.91,0,0,1,36,178.19Z"/><path class="cls-13" d="M353.88,58.77C233.12,4,90.79,57.42,36,178.19a238.91,238.91,0,0,0-20.82,117.2H18c-8.34-102.91,52.4-203,154-240C288.22,13.21,416.46,68.64,466.49,179.5c.79,1.76,1.57,3.54,2.32,5.33q2.34,5.53,4.41,11.24a235.79,235.79,0,0,1,7.06,23,233.25,233.25,0,0,1,6.28,76.35h2.72C497.41,198.8,446.16,103.07,353.88,58.77Z"/><path class="cls-12" d="M18,295.39H29.13q-.48-5.44-.69-10.88c-.13-3.51-.18-7-.15-10.49,0-1.75.05-3.49.11-5.23a223,223,0,0,1,2.37-25.89q1.15-7.68,2.83-15.25.57-2.52,1.18-5,1.23-5,2.7-10,2.19-7.41,4.88-14.64,1.78-4.83,3.8-9.56t4.24-9.37q2.22-4.64,4.65-9.17,1.22-2.27,2.48-4.51,2.53-4.47,5.28-8.83,1.36-2.19,2.79-4.33,2.84-4.31,5.88-8.47t6.27-8.2q4.94-6.17,10.32-12,3.41-3.67,7-7.22l0,0q2-2,4.05-3.89,3.42-3.21,7-6.29l.84-.72q3.59-3,7.3-6,7.55-5.89,15.67-11.19A224.65,224.65,0,0,1,200.48,58c.91-.22,1.83-.43,2.75-.63q9.08-2,18.18-3.3l2.46-.33A223.08,223.08,0,0,1,248.81,52H249a225.22,225.22,0,0,1,154.77,59.17c1.26,1.16,2.52,2.34,3.76,3.54q7.45,7.16,14.27,15.05c1.14,1.32,2.26,2.64,3.36,4q3.31,4,6.46,8.23t6.09,8.58a222.34,222.34,0,0,1,13.54,22.88q2.44,4.78,4.69,9.71l-55.58,16.23L289.14,231.84h0a57.37,57.37,0,0,0-36.42-13.51c-.92,0-1.84,0-2.76,0-1.84.07-3.67.23-5.49.47s-3.64.58-5.43,1a57.24,57.24,0,0,0-30.88,18.95c-.82,1-1.6,2-2.35,3-1,1.4-2,2.85-2.85,4.33a57.3,57.3,0,0,0-7.44,19.76l-65.71,29.54h30.92a17.41,17.41,0,0,1,4.71-5.92l-.18.08c.28-.23.59-.39.87-.6.45-.33.89-.67,1.38-1s.91-.51,1.38-.75a14.53,14.53,0,0,1,1.46-.62,16.92,16.92,0,0,1,3.22-.83,17.29,17.29,0,0,1,18.27,9.6h16.1a48.32,48.32,0,0,1,88.12-39.69c.55,1.19,1.05,2.41,1.5,3.65s.85,2.49,1.19,3.76a48.15,48.15,0,0,1-2.42,32.28h9.83a57.37,57.37,0,0,0,2.57-9.54l158.69-71.31a222.26,222.26,0,0,1,7.69,80.85h11.45A233.25,233.25,0,0,0,480.28,219a235.79,235.79,0,0,0-7.06-23q-2.07-5.72-4.41-11.24c-.75-1.79-1.53-3.57-2.32-5.33C416.46,68.64,288.21,13.21,172.05,55.41,70.43,92.33,9.68,192.48,18,295.39Zm316.2-31.5a17.29,17.29,0,0,1-14-31.56,15.27,15.27,0,0,1,2.15-1,17.29,17.29,0,1,1,11.81,32.51Zm47-22.5a12.21,12.21,0,1,1,7.31-15.64A12.22,12.22,0,0,1,381.26,241.39Zm43.9-19.2A8.14,8.14,0,1,1,430,211.76,8.14,8.14,0,0,1,425.16,222.19Z"/><path class="cls-12" d="M88.07,123.6q3.41-3.67,7-7.22Q91.48,119.92,88.07,123.6Z"/><path class="cls-12" d="M95.1,116.34q2-2,4.05-3.89Q97.1,114.37,95.1,116.34Z"/><path class="cls-12" d="M28.44,284.51c-.13-3.51-.18-7-.15-10.49C28.26,277.51,28.31,281,28.44,284.51Z"/><path class="cls-12" d="M50.4,179.1q2.22-4.64,4.65-9.17Q52.62,174.46,50.4,179.1Z"/><path class="cls-12" d="M200.48,58a225.48,225.48,0,0,0-49.84,18.28A225.48,225.48,0,0,1,200.48,58Z"/><path class="cls-12" d="M34.78,222.62q1.23-5,2.7-10Q36,217.62,34.78,222.62Z"/><path class="cls-12" d="M30.77,242.9q1.15-7.68,2.83-15.25Q31.92,235.21,30.77,242.9Z"/><path class="cls-12" d="M65.6,152.26q2.84-4.31,5.88-8.47Q68.44,148,65.6,152.26Z"/><path class="cls-12" d="M28.4,268.79a223,223,0,0,1,2.37-25.89A223,223,0,0,0,28.4,268.79Z"/><path class="cls-12" d="M42.36,198q1.78-4.83,3.8-9.56Q44.15,193.2,42.36,198Z"/><path class="cls-12" d="M425.11,133.76q3.31,4,6.46,8.23Q428.42,137.79,425.11,133.76Z"/><path class="cls-12" d="M106.13,106.16l.84-.72Z"/><path class="cls-12" d="M353.22,76.25a225,225,0,0,1,50.5,34.93A225,225,0,0,0,353.22,76.25Z"/><path class="cls-12" d="M28.44,284.51q.21,5.43.69,10.88h0Q28.65,289.95,28.44,284.51Z"/><path class="cls-12" d="M129.81,295.39h0l65.71-29.54A57.3,57.3,0,0,1,203,246.09a57.3,57.3,0,0,0-7.44,19.76Z"/><polygon class="cls-12" points="289.14 231.84 400.31 199.39 289.14 231.84 289.14 231.84"/><path class="cls-12" d="M353.22,76.25A224.34,224.34,0,0,0,249,52,224.34,224.34,0,0,1,353.22,76.25Z"/><path class="cls-12" d="M114.27,99.47q7.55-5.89,15.67-11.19Q121.83,93.58,114.27,99.47Z"/><path class="cls-12" d="M203.23,57.41q9.08-2,18.18-3.3Q212.32,55.37,203.23,57.41Z"/><path class="cls-12" d="M421.75,129.77q-6.81-7.89-14.27-15.05Q414.93,121.88,421.75,129.77Z"/><path class="cls-12" d="M223.87,53.78A223.08,223.08,0,0,1,248.81,52,223.08,223.08,0,0,0,223.87,53.78Z"/><path class="cls-12" d="M165.26,289.55l.18-.08.69-.52C165.85,289.16,165.54,289.32,165.26,289.55Z"/><path class="cls-12" d="M168.89,287.24a14.53,14.53,0,0,1,1.46-.62A14.53,14.53,0,0,0,168.89,287.24Z"/><path class="cls-12" d="M167.51,288q.68-.4,1.38-.75Q168.19,287.6,167.51,288Z"/></g></g></svg>